<?xml version="1.0" standalone="no"?>
<!DOCTYPE svg PUBLIC "-//W3C//DTD SVG 20010904//EN"
 "http://www.w3.org/TR/2001/REC-SVG-20010904/DTD/svg10.dtd">
<svg version="1.0" xmlns="http://www.w3.org/2000/svg"
 width="51.000000pt" height="46.000000pt" viewBox="0 0 51.000000 46.000000"
 preserveAspectRatio="xMidYMid meet">
<metadata>
Created by potrace 1.11, written by Peter Selinger 2001-2013
</metadata>
<g transform="translate(0.000000,46.000000) scale(0.100000,-0.100000)"
fill="#000000" stroke="none">
<path d="M93 449 c-6 -6 -26 -14 -44 -18 -59 -12 -66 -72 -8 -79 13 -2 39 -11
57 -20 31 -16 34 -16 63 1 25 14 56 17 173 17 165 0 192 9 163 53 -16 25 -18
25 -171 29 -107 2 -159 7 -168 16 -15 15 -50 16 -65 1z"/>
<path d="M220 285 c-9 -11 -34 -15 -97 -15 -86 0 -123 -10 -123 -34 0 -28 32
-40 111 -42 44 -1 93 -7 110 -15 24 -10 38 -10 64 0 18 6 70 13 115 15 98 5
126 21 95 56 -16 17 -30 20 -105 20 -66 0 -91 4 -100 15 -16 19 -54 19 -70 0z"/>
<path d="M110 130 c-8 -6 -31 -15 -50 -20 -54 -15 -64 -25 -56 -54 4 -17 13
-26 26 -26 11 0 37 -7 58 -15 32 -13 44 -14 68 -4 16 7 98 15 183 18 131 5
155 9 165 23 8 14 7 22 -7 35 -15 15 -39 18 -168 20 -115 2 -155 6 -172 18
-25 18 -27 18 -47 5z"/>
</g>
</svg>
