<?xml version="1.0" standalone="no"?>
<!DOCTYPE svg PUBLIC "-//W3C//DTD SVG 20010904//EN"
 "http://www.w3.org/TR/2001/REC-SVG-20010904/DTD/svg10.dtd">
<svg version="1.0" xmlns="http://www.w3.org/2000/svg"
 width="46.000000pt" height="46.000000pt" viewBox="0 0 46.000000 46.000000"
 preserveAspectRatio="xMidYMid meet">
<metadata>
Created by potrace 1.11, written by Peter Selinger 2001-2013
</metadata>
<g transform="translate(0.000000,46.000000) scale(0.100000,-0.100000)"
fill="#000000" stroke="none">
<path d="M143 429 c-66 -32 -91 -58 -123 -134 -27 -62 -25 -80 9 -152 58 -119
178 -167 292 -115 178 80 174 321 -6 406 -69 33 -96 32 -172 -5z m173 -47 c10
-6 31 -23 45 -39 92 -99 37 -259 -98 -288 l-33 -7 0 175 c0 95 3 176 6 179 6
7 52 -5 80 -20z"/>
</g>
</svg>
